
<svg width="429px" height="285px" viewBox="0 0 429 285" version="1.1" xmlns="http://www.w3.org/2000/svg" xmlns:xlink="http://www.w3.org/1999/xlink">
    <defs>
        <radialGradient cx="0%" cy="0%" fx="0%" fy="0%" r="171.956029%" gradientTransform="translate(0.000000,0.000000),scale(0.664336,1.000000),rotate(34.233287),translate(-0.000000,-0.000000)" id="radialGradient-2ylnj954rg-1">
            <stop stop-color="#A2C7FA" offset="0%"></stop>
            <stop stop-color="#A2C7FA" offset="100%"></stop>
        </radialGradient>
        <radialGradient cx="0%" cy="0%" fx="0%" fy="0%" r="135.195597%" id="radialGradient-2ylnj954rg-2">
            <stop stop-color="#A2C7FA" offset="0%"></stop>
            <stop stop-color="#A2C7FA" offset="100%"></stop>
        </radialGradient>
        <radialGradient cx="0%" cy="0%" fx="0%" fy="0%" r="259.628236%" gradientTransform="translate(0.000000,0.000000),scale(1.000000,0.400000),rotate(68.667970),translate(-0.000000,-0.000000)" id="radialGradient-2ylnj954rg-3">
            <stop stop-color="#A2C7FA" offset="0%"></stop>
            <stop stop-color="#A2C7FA" offset="100%"></stop>
        </radialGradient>
    </defs>
    <g id="Page-1" stroke="none" stroke-width="1" fill="none" fill-rule="evenodd">
        <g id="Icon" transform="translate(-41.000000, -108.000000)">
            <g id="4e800718d67165f73c2eff7dfb4d33b3" transform="translate(41.000000, 108.000000)" fill="url(#radialGradient-2ylnj954rg-1)">
                <path d="M167.660204,224.441882 L318.072857,224.441882 L318.072857,145.085332 L318.072857,138.512454 L324.639184,138.512454 L376.206735,138.512454 L379.227245,138.512454 L381.197143,140.87869 L419.325612,186.845018 L420.857755,188.685424 L420.857755,191.007841 L420.857755,224.441882 L422.477449,224.441882 L429,224.441882 L429,231.01476 L429,261.118542 L429,267.647601 L422.477449,267.647601 L408.688163,267.647601 C407.243571,271.021679 405.186122,274.089022 402.603367,276.630535 L402.559592,276.630535 C397.394082,281.801199 390.258673,285 382.422857,285 C374.587041,285 367.451633,281.801199 362.286122,276.630535 L362.242347,276.630535 C359.703367,274.089022 357.602143,271.021679 356.157551,267.647601 L233.235918,267.647601 C231.791327,271.021679 229.733878,274.089022 227.151122,276.630535 L227.107347,276.630535 C221.941837,281.801199 214.806429,285 206.970612,285 C199.134796,285 191.999388,281.801199 186.833878,276.630535 L186.790102,276.630535 C184.251122,274.089022 182.149898,271.021679 180.749082,267.647601 L167.660204,267.647601 L161.093878,267.647601 L161.093878,261.118542 L161.093878,231.01476 L161.093878,224.441882 L167.660204,224.441882 L167.660204,224.441882 Z M205.963776,114.850092 L201.586224,114.850092 L201.586224,119.232011 L201.586224,150.212177 L201.586224,154.594096 L205.963776,154.594096 L250.833673,154.594096 L255.211224,154.594096 L255.211224,150.212177 L255.211224,119.232011 L255.211224,114.850092 L250.833673,114.850092 L205.963776,114.850092 L205.963776,114.850092 Z M246.456122,123.570111 L210.341327,123.570111 L210.341327,145.786439 L246.456122,145.786439 L246.456122,123.570111 L246.456122,123.570111 Z M205.963776,160.202952 L201.586224,160.202952 L201.586224,164.584871 L201.586224,195.521218 L201.586224,199.903137 L205.963776,199.903137 L250.833673,199.903137 L255.211224,199.903137 L255.211224,195.521218 L255.211224,164.541052 L255.211224,160.159133 L250.833673,160.159133 L205.963776,160.159133 L205.963776,160.202952 Z M246.456122,168.92297 L210.341327,168.92297 L210.341327,191.183118 L246.456122,191.183118 L246.456122,168.92297 L246.456122,168.92297 Z M144.415408,114.850092 L140.037857,114.850092 L140.037857,119.232011 L140.037857,150.212177 L140.037857,154.594096 L144.415408,154.594096 L189.241531,154.594096 L193.619082,154.594096 L193.619082,150.212177 L193.619082,119.232011 L193.619082,114.850092 L189.241531,114.850092 L144.415408,114.850092 L144.415408,114.850092 Z M184.907755,123.570111 L148.792959,123.570111 L148.792959,145.786439 L184.907755,145.786439 L184.907755,123.570111 L184.907755,123.570111 Z M144.415408,160.202952 L140.037857,160.202952 L140.037857,164.584871 L140.037857,195.521218 L140.037857,199.903137 L144.415408,199.903137 L189.241531,199.903137 L193.619082,199.903137 L193.619082,195.521218 L193.619082,164.541052 L193.619082,160.159133 L189.241531,160.159133 L144.415408,160.159133 L144.415408,160.202952 Z M184.907755,168.92297 L148.792959,168.92297 L148.792959,191.183118 L184.907755,191.183118 L184.907755,168.92297 L184.907755,168.92297 Z M84.0927551,114.850092 L128.962653,114.850092 L133.340204,114.850092 L133.340204,119.232011 L133.340204,150.212177 L133.340204,154.594096 L128.962653,154.594096 L84.0927551,154.594096 L79.7152041,154.594096 L79.7152041,150.212177 L79.7152041,119.232011 L79.7152041,114.850092 L84.0927551,114.850092 L84.0927551,114.850092 Z M124.585102,123.570111 L88.4703061,123.570111 L88.4703061,145.786439 L124.585102,145.786439 L124.585102,123.570111 L124.585102,123.570111 Z M84.0927551,160.202952 L128.962653,160.202952 L133.340204,160.202952 L133.340204,164.584871 L133.340204,195.521218 L133.340204,199.903137 L128.962653,199.903137 L84.0927551,199.903137 L79.7152041,199.903137 L79.7152041,195.521218 L79.7152041,164.541052 L79.7152041,160.159133 L84.0927551,160.159133 L84.0927551,160.202952 Z M124.585102,168.92297 L88.4703061,168.92297 L88.4703061,191.183118 L124.585102,191.183118 L124.585102,168.92297 L124.585102,168.92297 Z M84.0927551,204.679428 L128.962653,204.679428 L133.340204,204.679428 L133.340204,209.061347 L133.340204,240.041513 L133.340204,244.423432 L128.962653,244.423432 L84.0927551,244.423432 L79.7152041,244.423432 L79.7152041,240.041513 L79.7152041,209.061347 L79.7152041,204.679428 L84.0927551,204.679428 L84.0927551,204.679428 Z M124.585102,213.443266 L88.4703061,213.443266 L88.4703061,235.659594 L124.585102,235.659594 L124.585102,213.443266 L124.585102,213.443266 Z M310.061939,113.88607 L322.931939,91.1439114 L162.538469,0 L161.444082,1.92804428 L160.349694,0 L0,91.1439114 L12.87,113.88607 L40.3610204,98.2426199 L40.3610204,270.013838 L57.827449,270.013838 L57.827449,88.2956642 L161.444082,29.4026753 L275.654388,94.298893 L275.654388,188.948339 L293.120816,188.948339 L293.120816,104.245849 L310.061939,113.88607 L310.061939,113.88607 Z M410.920714,254.545664 L415.911122,254.545664 L415.911122,237.587638 L403.785306,237.587638 C407.856429,242.144834 410.482959,248.016605 410.920714,254.545664 L410.920714,254.545664 Z M361.016633,237.543819 L228.420612,237.543819 C232.491735,242.144834 235.07449,248.016605 235.512245,254.501845 L353.968776,254.501845 C354.31898,248.016605 356.94551,242.144834 361.016633,237.543819 L361.016633,237.543819 Z M390.258673,248.586255 C388.245,246.570572 385.487143,245.343635 382.379082,245.343635 C379.314796,245.343635 376.513163,246.570572 374.49949,248.586255 C372.529592,250.558118 371.260102,253.362546 371.260102,256.429889 C371.260102,259.497232 372.485816,262.301661 374.49949,264.317343 C376.513163,266.333026 379.27102,267.559963 382.379082,267.559963 C385.443367,267.559963 388.245,266.333026 390.258673,264.317343 C392.228571,262.34548 393.498061,259.541052 393.498061,256.429889 C393.498061,253.362546 392.272347,250.558118 390.258673,248.586255 L390.258673,248.586255 Z M185.564388,237.543819 L174.182755,237.543819 L174.182755,254.501845 L178.472755,254.501845 C178.91051,248.016605 181.537041,242.144834 185.564388,237.543819 L185.564388,237.543819 Z M214.850204,248.586255 C212.836531,246.570572 210.078673,245.343635 206.970612,245.343635 C203.906327,245.343635 201.104694,246.570572 199.134796,248.586255 C197.121122,250.558118 195.895408,253.362546 195.895408,256.429889 C195.895408,259.497232 197.121122,262.301661 199.134796,264.317343 C201.104694,266.333026 203.906327,267.559963 206.970612,267.559963 C210.034898,267.559963 212.836531,266.333026 214.850204,264.317343 C216.820102,262.34548 218.089592,259.541052 218.089592,256.429889 C218.089592,253.362546 216.820102,250.558118 214.850204,248.586255 L214.850204,248.586255 Z M407.768878,205.906365 L345.257449,205.906365 L340.879898,205.906365 L340.879898,201.524446 L340.879898,165.110701 L340.879898,160.728782 L345.257449,160.728782 L380.671837,160.728782 L373.098673,151.614391 L331.117959,151.614391 L331.117959,224.441882 L407.725102,224.441882 L407.725102,205.906365 L407.768878,205.906365 Z M387.938571,169.448801 L349.635,169.448801 L349.635,197.142528 L407.768878,197.142528 L407.768878,193.374077 L387.938571,169.448801 Z" id="Shape"></path>
            </g>
            <g id="restaurant-cutlery-circular-symbol-of-a-spoon-and-a-fork-in-a-circle-svgrepo-com" transform="translate(177.945545, 158.792079)">
                <path d="M27.5112624,0 C12.316202,0 0,12.3175062 0,27.5143471 C0,38.463908 6.41197175,47.8902544 15.6700721,52.3186817 L16.5311592,35.6781461 C16.5311592,35.6781461 14.9114586,35.1465292 14.5569135,34.9734366 C11.1214757,33.4599907 8.62577962,29.0038 8.62577962,23.2202807 C8.62577962,16.9092575 13.5196676,11.4732944 18.2511058,11.4283932 C18.263101,11.4283932 18.2670423,11.4283932 18.2689273,11.4283932 C23.0013935,11.473123 27.8954529,16.9090862 27.8954529,23.2202807 C27.8954529,29.0038 25.3966723,33.4581055 21.9682604,34.9734366 C21.9413567,34.9852617 19.9782495,35.6981974 19.9782495,35.6981974 L20.9399253,54.2004206 C23.0502313,54.7198696 25.2443327,55.0247525 27.5150323,55.0247525 C30.5772466,55.0247525 33.5099123,54.5030755 36.2614498,53.5810577 L37.1136262,37.0920209 C34.8679452,36.5981073 32.9524762,35.1682943 31.7519237,33.3744727 C30.2646849,31.1463773 32.896784,11.426508 32.896784,11.426508 L34.6090194,11.426508 L34.6090194,29.9316446 L36.3094308,29.9316446 L36.3094308,11.4285645 L38.1690363,11.4285645 L38.1690363,29.9357577 L39.8613938,29.9357577 L39.8613938,11.4285645 L41.790743,11.4285645 L41.790743,29.9357577 L43.4889268,29.9357577 L43.4889268,11.4285645 L44.80292,11.4285645 C44.80292,11.4285645 47.4350192,31.1484339 45.9458954,33.3765292 C44.7571667,35.1526988 42.8596906,36.5783988 40.6419414,37.0841375 C40.6021857,37.0981906 40.5662,37.1119009 40.5662,37.1119009 L41.3068206,51.2953791 C49.5017996,46.5303638 55.0247525,37.6776222 55.0247525,27.5145185 C55.0206398,12.3176776 42.7044378,0 27.5112624,0 Z" id="Path" fill="url(#radialGradient-2ylnj954rg-2)"></path>
                <path d="M12.2158709,19.5662049 C12.320316,19.1678641 12.4607266,18.7892617 12.4670841,18.7824554 C12.5124951,18.6332265 12.4280308,18.4809347 12.2549243,18.3841146 C12.0903551,18.3010773 11.8898204,18.3436169 11.7970005,18.4770211 C11.7970005,18.4770211 11.5975557,18.7746281 11.3083789,19.2144875 C11.0731503,19.59309 10.7249393,20.198003 10.4873493,20.9512942 C10.281547,21.6115088 10.0357831,22.4893559 9.9249804,23.4718505 C9.87757139,23.9879409 9.86685441,24.4534943 9.88374728,24.9328304 C9.9249804,25.4793792 10.0134409,25.9469745 10.1823695,26.4817823 C10.7552738,28.0070821 11.1964864,29.4840569 12.7887752,30.9409531 C13.2921099,31.425394 13.8092495,31.7555013 14.182709,31.9986576 L14.3145823,32.0856086 C14.3948689,32.1351247 14.4718858,32.1807271 14.5478129,32.2222458 C14.8613299,32.3764093 15.0711284,32.4317107 15.1092736,32.439538 C15.2653055,32.4790148 15.4258786,32.4078886 15.4921785,32.2892882 C15.5544823,32.1647322 15.5090714,32.0085268 15.3793778,31.909835 C15.3793778,31.909835 15.1977341,31.761627 14.9646852,31.4847793 C14.8053837,31.3166628 14.6322772,31.0735065 14.4308343,30.7988708 C14.2884256,30.6050604 14.1205869,30.3855561 13.9643733,30.1720073 C13.1887546,29.0629149 12.7415478,27.514984 12.123051,25.929278 C12.001713,25.5852177 11.9025355,25.1394027 11.8654802,24.7608003 C11.8160731,24.3238336 11.7928227,23.9028617 11.7928227,23.5123482 C11.77484,22.6048935 11.8180712,21.8259084 11.9025355,21.1942804 C11.9995332,20.4816571 12.0754603,19.9468493 12.2158709,19.5662049 Z" id="Path" fill="url(#radialGradient-2ylnj954rg-3)"></path>
            </g>
        </g>
    </g>
</svg>